<svg width="258" height="277" viewBox="0 0 258 277" fill="none" xmlns="http://www.w3.org/2000/svg">
<path fill-rule="evenodd" clip-rule="evenodd" d="M256.76 191.989C256.776 192.199 256.793 192.415 256.81 192.638L256.81 192.642C256.793 192.418 256.776 192.2 256.76 191.989Z" fill="white"/>
<path d="M53.2601 150.516L0.56339 167.078V171.42L57.4696 154.053L53.2601 150.516Z" fill="#F3E493"/>
<path d="M58.2491 156.305L57.4696 154.053L0.56339 171.42V175.601L58.2491 157.591V156.305Z" fill="#F2C674"/>
<path d="M0.56339 177.852L57.4696 159.681L58.2491 157.591L0.56339 175.601V177.852Z" fill="#B4895C"/>
<path d="M53.2601 150.516L57.4696 154.053L58.2491 156.305V157.591L57.4696 159.681L66.8897 152.928L64.9531 150.516H53.2601Z" fill="#EAEBEF"/>
<path d="M70.254 150.516H64.9531L66.8897 152.928L70.254 150.516Z" fill="#454D64"/>
<path d="M129.811 141.671H96.4464L166.137 152.284L172.685 141.671L193.811 70.8372L197.007 37.9528L183.443 103.722L172.685 124.144L158.342 129.611L129.811 141.671Z" fill="#DCB37B"/>
<path d="M96.4464 141.671L54.3515 124.213L45.3088 132.345L96.4464 141.671Z" fill="#D8B57D"/>
<path d="M46.5561 140.546L168.164 163.058L175.533 149.068L177.905 144.566L178.922 142.636L188.9 109.429L190.615 103.722L191.646 93.1086L193.811 70.8372L172.685 141.671L166.137 152.284L96.4464 141.671L45.3088 132.345L46.5561 140.546Z" fill="#DDD3A2"/>
<path d="M155.691 77.8322C152.81 76.9101 148.052 76.5458 148.052 76.5458C148.052 76.5458 147.624 78.4872 148.052 79.6011C148.713 81.323 150.152 81.7728 151.908 82.3216L151.95 82.3347C153.693 82.8798 155.134 83.3874 156.627 82.3347C157.871 81.4576 158.342 78.8354 158.342 78.8354C158.342 78.8354 156.745 78.1695 155.691 77.8322Z" fill="#3F3832"/>
<path d="M108.451 73.4466C108.451 73.4466 108.092 76.8272 109.543 77.8322C110.794 78.6989 112.081 78.5174 113.44 77.8322C114.617 77.239 115.258 76.5252 115.623 75.2593C115.87 74.4026 115.623 72.9759 115.623 72.9759L108.451 73.4466Z" fill="#3F3832"/>
<path d="M117.494 78.1538C118.8 76.3883 119.053 72.7508 119.053 72.7508L115.623 72.9759C115.623 72.9759 115.87 74.4026 115.623 75.2593C115.258 76.5252 114.617 77.239 113.44 77.8322C112.081 78.5174 110.794 78.6989 109.543 77.8322C108.092 76.8272 108.451 73.4466 108.451 73.4466L105.333 73.6513C104.268 74.9418 103.984 76.2109 104.398 77.8322C104.809 79.4474 107.204 81.0483 107.204 81.0483C107.204 81.0483 111.149 81.874 113.44 81.0483C115.27 80.3888 116.337 79.7176 117.494 78.1538Z" fill="#5E5242"/>
<path d="M148.052 79.6011C147.624 78.4872 148.052 76.5458 148.052 76.5458L144.778 75.9944C144.778 75.9944 144.936 79.6912 146.025 81.6915C147.071 83.6121 147.878 84.9362 149.923 85.7116C151.631 86.3593 152.793 85.9784 154.6 85.7116C156.492 85.4323 157.775 85.4465 159.277 84.2644C160.758 83.0992 161.772 80.1336 161.772 80.1336L158.342 78.8354C158.342 78.8354 157.871 81.4576 156.627 82.3347C155.134 83.3874 153.693 82.8798 151.95 82.3347L151.908 82.3216C150.152 81.7728 148.713 81.323 148.052 79.6011Z" fill="#5E5242"/>
<path d="M140.412 75.2593C140.412 75.2593 138.941 81.9042 140.412 85.7116C141.789 89.2728 143.645 90.9657 146.805 93.1086C151.722 96.4435 156.132 97.7122 161.772 95.8423C165.736 94.528 167.783 92.6612 170.191 89.2493C171.446 87.4707 172.685 84.2644 172.685 84.2644L161.772 80.1336C161.772 80.1336 160.758 83.0992 159.277 84.2644C157.775 85.4465 156.492 85.4323 154.6 85.7116C152.793 85.9784 151.631 86.3593 149.923 85.7116C147.878 84.9362 147.071 83.6121 146.025 81.6915C144.936 79.6912 144.778 75.9944 144.778 75.9944L140.412 75.2593Z" fill="#EAEBEF"/>
<path d="M119.053 83.6211C121.921 80.1074 122.483 72.5257 122.483 72.5257L119.053 72.7508C119.053 72.7508 118.8 76.3883 117.494 78.1538C116.337 79.7176 115.27 80.3888 113.44 81.0483C111.149 81.874 107.204 81.0483 107.204 81.0483C107.204 81.0483 104.809 79.4474 104.398 77.8322C103.984 76.2109 104.268 74.9418 105.333 73.6513L92.5488 76.5458C92.5488 76.5458 92.177 79.3297 92.5488 81.0483C93.2528 84.3028 94.7653 86.1187 97.5378 87.9629C101.111 90.3397 104.223 89.982 108.451 89.2493C113.07 88.449 116.089 87.2528 119.053 83.6211Z" fill="#EAEBEF"/>
<path fill-rule="evenodd" clip-rule="evenodd" d="M96.4464 141.671H129.811L158.342 129.611L172.685 124.144L183.443 103.722L197.007 37.9528H186.405H145.402L144.778 41.8121L139.633 46.3146V49.0483L137.762 51.9428L136.515 56.9277L136.203 51.4604L131.682 61.591V51.9428L127.94 49.0483V46.3146L126.849 45.5106V44.385L124.822 42.9377L124.042 40.0433L125.445 37.9528H83.8179L70.6501 81.6915L64.0177 103.722L58.8728 107.816L56.8465 109.429L50.7656 114.269L44.2175 119.48L54.3515 124.213L96.4464 141.671ZM122.483 72.5257C122.483 72.5257 121.921 80.1074 119.053 83.6211C116.089 87.2528 113.07 88.449 108.451 89.2493C104.223 89.982 101.111 90.3397 97.5378 87.9629C94.7653 86.1187 93.2528 84.3028 92.5488 81.0483C92.177 79.3297 92.5488 76.5458 92.5488 76.5458L105.333 73.6513L108.451 73.4466L115.623 72.9759L119.053 72.7508L122.483 72.5257ZM140.412 85.7116C138.941 81.9042 140.412 75.2593 140.412 75.2593L144.778 75.9944L148.052 76.5458C148.052 76.5458 152.81 76.9101 155.691 77.8322C156.745 78.1695 158.342 78.8354 158.342 78.8354L161.772 80.1336L172.685 84.2644C172.685 84.2644 171.446 87.4707 170.191 89.2493C167.783 92.6612 165.736 94.528 161.772 95.8423C156.132 97.7122 151.722 96.4435 146.805 93.1086C143.645 90.9657 141.789 89.2728 140.412 85.7116Z" fill="#FEF3A1"/>
<path d="M210.103 110.636C202.065 109.862 190.615 103.722 190.615 103.722L188.9 109.429L191.355 136.686H193.811L196.539 138.295H198.722L201.372 140.546L202.931 139.742L204.958 142.797L207.765 144.054L209.012 145.531L212.13 149.068V150.355L214.78 153.893L213.533 157.913C213.533 157.913 218.907 158.511 222.264 157.913C225.651 157.309 227.737 156.871 230.527 154.857C232.947 153.111 234.423 151.845 235.516 149.068C236.242 147.224 236.296 144.054 236.296 144.054C236.296 144.054 235.277 144.628 234.581 144.566C232.704 144.4 234.01 141.537 234.581 139.742C235.197 137.8 236.014 136.705 237.699 135.561L239.258 116.104C239.258 116.104 238.226 115.98 237.699 115.621C236.385 114.727 237.075 111.601 237.075 111.601L240.973 107.581V99.3799C240.973 99.3799 235.164 105.258 230.527 107.581C223.316 111.193 218.131 111.41 210.103 110.636Z" fill="#609BDF"/>
<path d="M247.833 108.224C245.375 107.128 243.652 107.832 240.973 107.581L237.075 111.601C237.075 111.601 236.385 114.727 237.699 115.621C238.226 115.98 239.258 116.104 239.258 116.104C239.258 116.104 242.366 113.631 244.559 114.013C247.336 114.497 249.08 119.641 249.08 119.641C249.08 119.641 250.884 127.666 248.3 131.541C246.99 133.507 245.987 134.719 243.779 135.561C241.56 136.407 240.073 135.561 237.699 135.561C236.014 136.705 235.197 137.8 234.581 139.742C234.01 141.537 232.704 144.4 234.581 144.566C235.277 144.628 236.296 144.054 236.296 144.054L240.505 142.797C240.505 142.797 245.315 142.165 247.833 140.546C251.071 138.464 253.757 132.666 253.757 132.666V114.978C253.757 114.978 251.037 109.654 247.833 108.224Z" fill="#609BDF"/>
<path fill-rule="evenodd" clip-rule="evenodd" d="M191.646 93.1086L190.615 103.722C190.615 103.722 202.065 109.862 210.103 110.636C218.131 111.41 223.316 111.193 230.527 107.581C235.164 105.258 240.973 99.3799 240.973 99.3799C240.973 99.3799 236.848 92.0813 232.554 89.2493C227.342 85.8121 223.206 85.6565 216.963 85.7116C212.193 85.7537 204.958 87.9629 204.958 87.9629L191.646 93.1086ZM225.538 107.581C220.494 109.161 217.381 110.037 212.13 109.429C209.257 109.097 207.731 108.403 204.958 107.581C201.625 106.593 199.368 106.708 196.539 104.686C194.76 103.415 193.217 102.776 192.641 100.666C192.052 98.5059 192.58 96.7881 194.064 95.1111C195.108 93.9319 196.161 93.8231 197.564 93.1086C201.785 90.9592 204.447 90.3105 209.064 89.2493C212.11 88.5491 213.377 87.7481 216.963 87.9629C220.945 88.2014 223.354 87.8697 227.097 89.2493C230.775 90.605 233.524 91.3399 235.516 94.7166C236.736 96.7856 238.634 98.2216 237.075 100.666C235.516 103.111 233.378 104.168 230.527 105.651C228.749 106.576 227.626 106.928 225.777 107.506L225.538 107.581Z" fill="#ADD9F6"/>
<path d="M212.13 109.429C217.381 110.037 220.494 109.161 225.538 107.581L225.777 107.506C227.626 106.928 228.749 106.576 230.527 105.651C233.378 104.168 235.516 103.111 237.075 100.666C237.075 100.666 229.07 96.8804 223.564 95.8423C217.022 94.6088 213.067 94.6515 206.517 95.8423C200.873 96.8684 192.641 100.666 192.641 100.666C193.217 102.776 194.76 103.415 196.539 104.686C199.368 106.708 201.625 106.593 204.958 107.581C207.731 108.403 209.257 109.097 212.13 109.429Z" fill="#503732"/>
<path d="M237.075 100.666C238.634 98.2216 236.736 96.7856 235.516 94.7166C233.524 91.3399 230.775 90.605 227.097 89.2493C223.354 87.8697 220.945 88.2014 216.963 87.9629C213.377 87.7481 212.11 88.5491 209.064 89.2493C204.447 90.3105 201.785 90.9592 197.564 93.1086C196.161 93.8231 195.108 93.9319 194.064 95.1111C192.58 96.7881 192.052 98.5059 192.641 100.666C192.641 100.666 200.873 96.8684 206.517 95.8423C213.067 94.6515 217.022 94.6088 223.564 95.8423C229.07 96.8804 237.075 100.666 237.075 100.666Z" fill="#5080C3"/>
<path d="M237.699 135.561C240.073 135.561 241.56 136.407 243.779 135.561C245.987 134.719 246.99 133.507 248.3 131.541C250.884 127.666 249.08 119.641 249.08 119.641C249.08 119.641 247.336 114.497 244.559 114.013C242.366 113.631 239.258 116.104 239.258 116.104L237.699 135.561Z" fill="#C8D1E9"/>
<path d="M183.443 142.636L188.9 136.686H191.355L188.9 109.429L178.922 142.636L177.905 144.566L183.443 142.636Z" fill="#C8D1E9"/>
<path d="M175.533 149.068L168.164 163.058H175.533L172.685 159.038L174.556 153.893L175.533 149.068Z" fill="#C8D1E9"/>
<path d="M39.3843 257.611H214.469C261.861 257.611 258.057 208.678 256.81 192.644L256.81 192.642L256.81 192.638L256.76 191.989C256.646 190.511 256.563 189.36 256.563 188.611V188.465C256.563 188.465 248.389 182.22 242.532 179.3C235.083 175.586 222.264 172.707 222.264 172.707L202.931 167.882L198.722 171.099H194.824L188.9 169.651H185.314L182.352 167.882H180.637L175.533 163.058H168.164L116.714 161.933C116.714 161.933 70.4956 162.185 42.8143 171.099C41.7002 171.457 40.5539 171.85 39.3843 172.271C22.4277 178.374 0.56339 190.395 0.56339 190.395C0.56339 190.395 -2.79534 257.611 39.3843 257.611Z" fill="#EAEBEF"/>
<path d="M232.554 27.983C232.554 27.983 232.723 32.4962 232.554 35.38C232.03 44.2888 227.097 57.5709 227.097 57.5709C227.097 57.5709 224.291 59.8548 222.42 59.983C220.549 60.1111 207.141 55.6413 204.958 56.2845C202.775 56.9277 202.152 57.5709 202.152 57.5709L202.362 61.591C202.362 61.591 203.399 59.1035 207.765 58.8573C212.13 58.6111 215.064 60.6111 220.549 61.591C226.034 62.5709 225.13 61.591 227.097 61.591C229.064 61.591 237.075 39.4001 237.075 35.38C237.075 31.3599 232.554 27.983 232.554 27.983Z" fill="#DDD3A2"/>
<path d="M219.146 46.4754C219.146 46.4754 223.064 38.6111 223.979 35.38C224.894 32.1488 223.933 31.8325 222.42 30.5558C221.386 29.684 220.498 29.4175 219.146 29.4302C216.964 29.4507 215.248 29.9126 214.469 32.4855C213.689 35.0583 213.689 45.0282 213.689 45.0282L219.146 46.4754Z" fill="#CB625F"/>
<path d="M215.872 48.2443C216.179 48.2443 217.564 48.1111 217.898 50.0131C218.04 50.8172 218.064 51.6111 217.898 52.1036C217.898 52.1036 217.064 53.5508 215.872 53.5508C214.679 53.5508 214.564 53.6111 213.689 53.5508C212.814 53.4905 212.064 52.6111 211.974 51.2996C211.884 49.988 211.884 49.8071 211.974 49.2091C212.064 48.6111 212.314 48.3774 213.689 48.2443C215.064 48.1111 215.564 48.2443 215.872 48.2443Z" fill="#CB625F"/>
<path d="M201.372 32.4855L202.152 30.5558L203.143 33.1287H207.141L203.143 34.4151L202.152 35.38L200.905 34.7367L201.372 32.4855Z" fill="#454D64"/>
<path d="M202.152 57.5709L199.969 40.6865L197.007 37.9528L203.143 76.5458L202.362 61.591L202.152 57.5709Z" fill="#DCB37B"/>
<path d="M197.007 37.9528L193.811 70.8372L191.646 93.1086L204.958 87.9629L203.143 76.5458L197.007 37.9528Z" fill="#B4895C"/>
<path fill-rule="evenodd" clip-rule="evenodd" d="M186.405 37.9528H197.007L199.969 40.6865L202.152 57.5709C202.152 57.5709 202.775 56.9277 204.958 56.2845C207.141 55.6413 220.549 60.1111 222.42 59.983C224.291 59.8548 227.097 57.5709 227.097 57.5709C227.097 57.5709 232.03 44.2888 232.554 35.38C232.723 32.4962 232.554 27.983 232.554 27.983C232.554 27.983 204.958 16.0835 197.007 19.2996C197.007 19.2996 193.263 19.782 190.615 22.6764C187.966 25.5709 186.405 37.9528 186.405 37.9528ZM223.979 35.38C223.064 38.6111 219.146 46.4754 219.146 46.4754L213.689 45.0282C213.689 45.0282 213.689 35.0583 214.469 32.4855C215.248 29.9126 216.964 29.4507 219.146 29.4302C220.498 29.4175 221.386 29.684 222.42 30.5558C223.933 31.8325 224.894 32.1488 223.979 35.38ZM217.898 50.0131C217.564 48.1111 216.179 48.2443 215.872 48.2443C215.564 48.2443 215.064 48.1111 213.689 48.2443C212.314 48.3774 212.064 48.6111 211.974 49.2091C211.884 49.8071 211.884 49.988 211.974 51.2996C212.064 52.6111 212.814 53.4905 213.689 53.5508C214.564 53.6111 214.679 53.5508 215.872 53.5508C217.064 53.5508 217.898 52.1036 217.898 52.1036C218.064 51.6111 218.04 50.8172 217.898 50.0131ZM202.152 30.5558L201.372 32.4855L200.905 34.7367L202.152 35.38L203.143 34.4151L207.141 33.1287H203.143L202.152 30.5558Z" fill="#FCFCFA"/>
<path d="M131.682 61.591L136.203 51.4604L136.515 56.9277L137.762 51.9428L139.633 49.0483V46.3146L136.203 48.4051H132.441L127.94 46.3146V49.0483L131.682 51.9428V61.591Z" fill="#D7D0A8"/>
<path d="M168.164 163.058L46.5561 140.546L45.3088 132.345L54.3515 124.213L44.2175 119.48L50.7656 114.269L44.2175 113.852L41.0993 112.083H38.293L36.578 110.154L34.5512 109.429L29.2504 100.666L32.0567 93.1086L34.5512 89.2493L45.3088 80.1336L58.8728 75.9944L66.824 79.6011L70.6501 81.6915L83.8179 37.9528H125.445L124.042 35.8624L119.209 31.8423L117.494 25.5709L112 24.9277L105.5 21.8724L101.5 16.0835V9.49051L106 5.5L112 2.5L116 1.48058C100.779 1.00027 46.8269 -0.53273 39.3843 1.61111C30.7053 4.11111 0.563619 16.2443 0.56339 44.385C0.563161 72.5257 0.56339 124.213 0.56339 124.213L1.96655 120.284L4.30517 118.194H7.1115L10.6974 113.852L14.2833 111.279L18.4928 112.083L21.9227 110.154L28.4708 113.852L32.3685 115.139L36.578 120.284L40.1639 124.213V126.234L42.8143 128.968V134.114L41.0993 136.847L38.293 140.546L36.578 143.119L34.5512 144.566H30.3417L27.2236 146.978H23.17H18.4928L13.1919 146.013L8.67058 144.566L4.30517 142.315V140.546L0.56339 136.847V167.078L53.2601 150.516H64.9531H70.254L66.8897 152.928L57.4696 159.681L0.56339 177.852V190.395C0.56339 190.395 22.4277 178.374 39.3843 172.271C40.5539 171.85 41.7002 171.457 42.8143 171.099C70.4956 162.185 116.714 161.933 116.714 161.933L168.164 163.058Z" fill="#C8D1E9"/>
<path d="M256.563 44.385C256.563 44.385 256.564 1.61111 214.469 1.61111H129.031H124.51L119.209 5.5L116 6.5L111 10.1337L109.5 12.5458V15.7619L111 18.6563L112 20.586H115H118.118L119.209 15.2795L125.913 8.84729L134.488 5.79202L144.778 4.50558L152.261 5.79202L158.186 10.1337V16.8875L153.197 21.8724L143.998 24.9277L136.515 26.0533L133.553 29.591L136.203 32.3247H140.724L143.998 34.5759L145.402 37.9528H186.405C186.405 37.9528 187.966 25.5709 190.615 22.6764C193.263 19.782 197.007 19.2996 197.007 19.2996C204.958 16.0835 232.554 27.983 232.554 27.983C232.554 27.983 237.075 31.3599 237.075 35.38C237.075 39.4001 229.064 61.591 227.097 61.591C225.13 61.591 226.034 62.5709 220.549 61.591C215.064 60.6111 212.13 58.6111 207.765 58.8573C203.399 59.1035 202.362 61.591 202.362 61.591L203.143 76.5458L204.958 87.9629C204.958 87.9629 212.193 85.7537 216.963 85.7116C223.206 85.6565 227.342 85.8121 232.554 89.2493C236.848 92.0813 240.973 99.3799 240.973 99.3799V107.581C243.652 107.832 245.375 107.128 247.833 108.224C251.037 109.654 253.757 114.978 253.757 114.978V132.666C253.757 132.666 251.071 138.464 247.833 140.546C245.315 142.165 240.505 142.797 240.505 142.797L236.296 144.054C236.296 144.054 236.242 147.224 235.516 149.068C234.423 151.845 232.947 153.111 230.527 154.857C227.737 156.871 225.651 157.309 222.264 157.913C218.907 158.511 213.533 157.913 213.533 157.913V160.485L210.103 163.058L209.012 165.953L202.931 167.882L222.264 172.707C222.264 172.707 235.083 175.586 242.532 179.3C248.389 182.22 256.563 188.465 256.563 188.465L256.563 186.767V186.616L256.563 44.385Z" fill="#C8D1E9"/>
<path d="M117.494 25.5709L118.118 20.586H115H112L111 18.6563L109.5 15.7619V12.5458L111 10.1337L116 6.5L119.209 5.5L124.51 1.61111H119.989C119.989 1.61111 118.529 1.56037 116 1.48058L112 2.5L106 5.5L101.5 9.49051V16.0835L105.5 21.8724L112 24.9277L117.494 25.5709Z" fill="#9F9FA9"/>
<path d="M125.445 37.9528L124.042 40.0433L124.822 42.9377L126.849 44.385V45.5106L127.94 46.3146L132.441 48.4051V45.5106H131.682V43.581H132.773V41.8121L127.94 40.6865L125.445 37.9528Z" fill="#9F9FA9"/>
<path d="M128.096 35.7016L126.537 32.3247L124.822 28.4654V25.5709H119.209L119.989 28.1438L122.327 32.3247L128.096 35.7016Z" fill="#DADBE0"/>
<path d="M130.434 29.591L132.149 25.7317H127.628V27.5006L130.434 29.591Z" fill="#DADBE0"/>
<path d="M140.257 34.8975V36.184L136.983 36.8272L133.553 36.5056L131.993 32.6463L134.488 34.2543L136.983 35.0583L140.257 34.8975Z" fill="#DADBE0"/>
<path d="M132.773 43.581H131.682V45.5106H132.441L136.515 44.385L139.633 40.6865V39.4001L136.983 40.0433L136.203 40.6865V42.9377L134.02 43.9026L132.773 43.581Z" fill="#DADBE0"/>
<path d="M139.633 46.3146L144.778 41.8121L145.402 37.9528H133.864L133.553 41.3297L134.02 43.9026L136.203 42.9377V40.6865L136.983 40.0433L139.633 39.4001V40.6865L136.515 44.385L132.441 45.5106V48.4051H136.203L139.633 46.3146Z" fill="#9F9FA9"/>
<path d="M125.445 37.9528L127.94 40.6865L132.773 41.8121V43.581L134.02 43.9026L133.553 41.3297L133.864 37.9528H125.445Z" fill="#DADBE0"/>
<path d="M121.236 20.1036H126.225L124.822 23.4805H120.456L121.236 20.1036Z" fill="#DADBE0"/>
<path d="M129.655 20.586L127.628 23.8021H133.553L138.23 20.586H129.655Z" fill="#DADBE0"/>
<path fill-rule="evenodd" clip-rule="evenodd" d="M145.402 37.9528L143.998 34.5759L140.724 32.3247H136.203L133.553 29.591L136.515 26.0533L143.998 24.9277L153.197 21.8724L158.186 16.8875V10.1337L152.261 5.79202L144.778 4.50558L134.488 5.79202L125.913 8.84729L119.209 15.2795L118.118 20.586L117.494 25.5709L119.209 31.8423L124.042 35.8624L125.445 37.9528H133.864H145.402ZM140.257 36.184V34.8975L136.983 35.0583L134.488 34.2543L131.993 32.6463L133.553 36.5056L136.983 36.8272L140.257 36.184ZM126.537 32.3247L128.096 35.7016L122.327 32.3247L119.989 28.1438L119.209 25.5709H124.822V28.4654L126.537 32.3247ZM132.149 25.7317L130.434 29.591L127.628 27.5006V25.7317H132.149ZM127.628 23.8021L129.655 20.586H138.23L141.192 19.1387L143.531 17.6915L144.466 15.7619L143.531 13.3498L139.321 12.5458L133.553 14.4754L127.316 18.6563L123.574 17.6915L125.913 14.4754L132.149 10.6161L137.45 9.49051H143.998L147.428 10.6161L149.455 12.5458L151.326 14.4754V16.0835L149.143 17.6915L145.713 19.6212H142.907L143.531 17.6915L141.192 19.1387L138.23 20.586L133.553 23.8021H127.628ZM126.225 20.1036H121.236L120.456 23.4805H124.822L126.225 20.1036ZM134.488 16.8875L131.214 19.1387H136.203L139.789 17.6915L141.192 15.7619L138.542 15.2795L134.488 16.8875Z" fill="#9F9FA9"/>
<path d="M127.316 18.6563L133.553 14.4754L139.321 12.5458L143.531 13.3498L144.466 15.7619L143.531 17.6915L142.907 19.6212H145.713L149.143 17.6915L151.326 16.0835V14.4754L149.455 12.5458L147.428 10.6161L143.998 9.49051H137.45L132.149 10.6161L125.913 14.4754L123.574 17.6915L127.316 18.6563Z" fill="#DADBE0"/>
<path d="M131.214 19.1387L134.488 16.8875L138.542 15.2795L141.192 15.7619L139.789 17.6915L136.203 19.1387H131.214Z" fill="#DADBE0"/>
<path d="M96.4464 141.671H129.811L158.342 129.611L172.685 124.144L183.443 103.722L197.007 37.9528M96.4464 141.671L54.3515 124.213M96.4464 141.671L45.3088 132.345M96.4464 141.671L166.137 152.284L172.685 141.671L193.811 70.8372M197.007 37.9528L193.811 70.8372M197.007 37.9528H186.405M197.007 37.9528L199.969 40.6865L202.152 57.5709M197.007 37.9528L203.143 76.5458M204.958 87.9629L191.646 93.1086M204.958 87.9629C204.958 87.9629 212.193 85.7537 216.963 85.7116C223.206 85.6565 227.342 85.8121 232.554 89.2493C236.848 92.0813 240.973 99.3799 240.973 99.3799M204.958 87.9629L203.143 76.5458M190.615 103.722L191.646 93.1086M190.615 103.722C190.615 103.722 202.065 109.862 210.103 110.636C218.131 111.41 223.316 111.193 230.527 107.581C235.164 105.258 240.973 99.3799 240.973 99.3799M190.615 103.722L188.9 109.429M168.164 163.058L46.5561 140.546L45.3088 132.345M168.164 163.058L175.533 149.068M168.164 163.058L116.714 161.933C116.714 161.933 70.4956 162.185 42.8143 171.099C41.7002 171.457 40.5539 171.85 39.3843 172.271C22.4277 178.374 0.56339 190.395 0.56339 190.395M168.164 163.058H175.533M45.3088 132.345L54.3515 124.213M54.3515 124.213L44.2175 119.48L50.7656 114.269M193.811 70.8372L191.646 93.1086M113.44 107.581C113.44 107.581 118.967 101.965 123.574 101.31C126.739 100.86 128.798 101.056 131.682 102.435C135.606 104.312 138.853 110.958 138.853 110.958M96.4464 65.6111C96.4464 65.6111 103.167 59.5481 108.451 57.5709C111.833 56.3057 117.494 55.6413 117.494 55.6413M151.95 57.5709C151.95 57.5709 159.148 59.1075 163.019 61.591C167.816 64.6688 172.685 72.5257 172.685 72.5257M120.612 64.1639L122.483 72.5257M122.483 72.5257C122.483 72.5257 121.921 80.1074 119.053 83.6211C116.089 87.2528 113.07 88.449 108.451 89.2493C104.223 89.982 101.111 90.3397 97.5378 87.9629C94.7653 86.1187 93.2528 84.3028 92.5488 81.0483C92.177 79.3297 92.5488 76.5458 92.5488 76.5458M122.483 72.5257L119.053 72.7508M92.5488 76.5458L88.0274 78.1538M92.5488 76.5458C92.5488 76.5458 100.341 74.7817 105.333 73.6513M92.5488 76.5458L105.333 73.6513M105.333 73.6513C104.268 74.9418 103.984 76.2109 104.398 77.8322C104.809 79.4474 107.204 81.0483 107.204 81.0483C107.204 81.0483 111.149 81.874 113.44 81.0483C115.27 80.3888 116.337 79.7176 117.494 78.1538C118.8 76.3883 119.053 72.7508 119.053 72.7508M105.333 73.6513C106.551 73.5714 108.451 73.4466 108.451 73.4466M105.333 73.6513L108.451 73.4466M119.053 72.7508L115.623 72.9759M108.451 73.4466C108.451 73.4466 108.092 76.8272 109.543 77.8322C110.794 78.6989 112.081 78.5174 113.44 77.8322C114.617 77.239 115.258 76.5252 115.623 75.2593C115.87 74.4026 115.623 72.9759 115.623 72.9759M108.451 73.4466L115.623 72.9759M144.778 67.0583L140.412 75.2593M140.412 75.2593C140.412 75.2593 138.941 81.9042 140.412 85.7116C141.789 89.2728 143.645 90.9657 146.805 93.1086C151.722 96.4435 156.132 97.7122 161.772 95.8423C165.736 94.528 167.783 92.6612 170.191 89.2493C171.446 87.4707 172.685 84.2644 172.685 84.2644M140.412 75.2593L144.778 75.9944M172.685 84.2644L175.648 85.7116M172.685 84.2644L161.772 80.1336M148.052 76.5458C148.052 76.5458 152.81 76.9101 155.691 77.8322C156.745 78.1695 158.342 78.8354 158.342 78.8354M148.052 76.5458C148.052 76.5458 147.624 78.4872 148.052 79.6011C148.713 81.323 150.152 81.7728 151.908 82.3216M148.052 76.5458L144.778 75.9944M151.95 82.3347C153.693 82.8798 155.134 83.3874 156.627 82.3347C157.871 81.4576 158.342 78.8354 158.342 78.8354M151.95 82.3347L151.908 82.3216M151.95 82.3347C151.936 82.3303 151.922 82.3259 151.908 82.3216M158.342 78.8354L161.772 80.1336M161.772 80.1336C161.772 80.1336 160.758 83.0992 159.277 84.2644C157.775 85.4465 156.492 85.4323 154.6 85.7116C152.793 85.9784 151.631 86.3593 149.923 85.7116C147.878 84.9362 147.071 83.6121 146.025 81.6915C144.936 79.6912 144.778 75.9944 144.778 75.9944M0.56339 190.395C0.56339 190.395 -2.79534 257.611 39.3843 257.611M0.56339 190.395V177.852M214.469 1.61111C256.564 1.61111 256.563 44.385 256.563 44.385L256.563 186.616M214.469 1.61111C172.374 1.61111 129.031 1.61111 129.031 1.61111M214.469 1.61111H129.031M256.563 188.611C256.563 187.876 256.563 187.267 256.563 186.767M256.563 188.611C256.563 189.36 256.646 190.511 256.76 191.989M256.563 188.611V188.465M214.469 257.611C161.772 257.611 81.564 257.611 39.3843 257.611M214.469 257.611H39.3843M214.469 257.611C261.861 257.611 258.057 208.678 256.81 192.644L256.81 192.642M240.973 99.3799C240.973 99.3799 240.973 104.378 240.973 107.581M240.973 99.3799V107.581M240.973 107.581C243.652 107.832 245.375 107.128 247.833 108.224C251.037 109.654 253.757 114.978 253.757 114.978V132.666C253.757 132.666 251.071 138.464 247.833 140.546C245.315 142.165 240.505 142.797 240.505 142.797L236.296 144.054M240.973 107.581C239.451 109.151 237.075 111.601 237.075 111.601M240.973 107.581L237.075 111.601M237.699 135.561C236.014 136.705 235.197 137.8 234.581 139.742C234.01 141.537 232.704 144.4 234.581 144.566C235.277 144.628 236.296 144.054 236.296 144.054M237.699 135.561C240.073 135.561 241.56 136.407 243.779 135.561C245.987 134.719 246.99 133.507 248.3 131.541C250.884 127.666 249.08 119.641 249.08 119.641C249.08 119.641 247.336 114.497 244.559 114.013C242.366 113.631 239.258 116.104 239.258 116.104M237.699 135.561C238.308 127.962 239.258 116.104 239.258 116.104M237.699 135.561L239.258 116.104M239.258 116.104C239.258 116.104 238.226 115.98 237.699 115.621C236.385 114.727 237.075 111.601 237.075 111.601M236.296 144.054C236.296 144.054 236.242 147.224 235.516 149.068C234.423 151.845 232.947 153.111 230.527 154.857C227.737 156.871 225.651 157.309 222.264 157.913C218.907 158.511 213.533 157.913 213.533 157.913M213.533 157.913L214.78 153.893L212.13 150.355V149.068L209.012 145.531L207.765 144.054L204.958 142.797M213.533 157.913V160.485L210.103 163.058L209.012 165.953L202.931 167.882M204.958 142.797L202.931 139.742L201.372 140.546L198.722 138.295H196.539L193.811 136.686H191.355M204.958 142.797L204.023 145.531L204.958 149.068L206.517 153.893V157.913L204.958 163.058M177.905 144.566L178.922 142.636L188.9 109.429M177.905 144.566L183.443 142.636L188.9 136.686H191.355M177.905 144.566L175.533 149.068M175.533 149.068L174.556 153.893L172.685 159.038L175.533 163.058M175.533 163.058L180.637 167.882H182.352L185.314 169.651H188.9L194.824 171.099H198.722L202.931 167.882M202.931 167.882L222.264 172.707C222.264 172.707 235.083 175.586 242.532 179.3C248.389 182.22 256.563 188.465 256.563 188.465M191.355 136.686L188.9 109.429M225.538 107.581C220.494 109.161 217.381 110.037 212.13 109.429C209.257 109.097 207.731 108.403 204.958 107.581C201.625 106.593 199.368 106.708 196.539 104.686C194.76 103.415 193.217 102.776 192.641 100.666M225.538 107.581L225.777 107.506M225.538 107.581C225.619 107.556 225.699 107.531 225.777 107.506M237.075 100.666C235.516 103.111 233.378 104.168 230.527 105.651C228.749 106.576 227.626 106.928 225.777 107.506M237.075 100.666C238.634 98.2216 236.736 96.7856 235.516 94.7166C233.524 91.3399 230.775 90.605 227.097 89.2493C223.354 87.8697 220.945 88.2014 216.963 87.9629C213.377 87.7481 212.11 88.5491 209.064 89.2493C204.447 90.3105 201.785 90.9592 197.564 93.1086C196.161 93.8231 195.108 93.9319 194.064 95.1111C192.58 96.7881 192.052 98.5059 192.641 100.666M237.075 100.666C237.075 100.666 229.07 96.8804 223.564 95.8423C217.022 94.6088 213.067 94.6515 206.517 95.8423C200.873 96.8684 192.641 100.666 192.641 100.666M195.448 148.425L188.9 142.797L182.352 145.531L179.701 153.249L180.637 159.038M195.448 148.425V152.284L194.824 160.485M195.448 148.425L193.811 144.566L196.539 141.671H200.125M195.448 148.425L197.631 149.068L200.125 152.284M194.824 160.485L197.631 165.953M194.824 160.485H190.615M197.631 165.953V167.882M197.631 165.953L202.931 163.058H204.958M204.958 163.058L201.372 167.882M204.958 163.058L209.012 161.933M190.615 160.485L192.641 165.953M190.615 160.485L186.405 159.038H182.352M182.352 159.038H180.637M182.352 159.038L185.314 163.058L188.432 167.078M180.637 159.038L178.922 160.485M180.637 159.038L183.443 164.988M186.405 37.9528C186.405 37.9528 187.966 25.5709 190.615 22.6764C193.263 19.782 197.007 19.2996 197.007 19.2996C204.958 16.0835 232.554 27.983 232.554 27.983M186.405 37.9528H145.402M232.554 27.983C232.554 27.983 232.723 32.4962 232.554 35.38C232.03 44.2888 227.097 57.5709 227.097 57.5709C227.097 57.5709 224.291 59.8548 222.42 59.983C220.549 60.1111 207.141 55.6413 204.958 56.2845C202.775 56.9277 202.152 57.5709 202.152 57.5709M232.554 27.983C232.554 27.983 237.075 31.3599 237.075 35.38C237.075 39.4001 229.064 61.591 227.097 61.591C225.13 61.591 226.034 62.5709 220.549 61.591C215.064 60.6111 212.13 58.6111 207.765 58.8573C203.399 59.1035 202.362 61.591 202.362 61.591M202.152 57.5709L202.362 61.591M203.143 76.5458L202.362 61.591M199.969 37.9528L204.958 39.2393M200.905 41.9729L202.152 45.0282L204.958 45.6714M70.6501 81.6915L83.8179 37.9528H125.445M70.6501 81.6915L64.0177 103.722L58.8728 107.816M70.6501 81.6915L66.824 79.6011L58.8728 75.9944M58.8728 75.9944L45.3088 80.1336L34.5512 89.2493L32.0567 93.1086L29.2504 100.666L34.5512 109.429L36.578 110.154L38.293 112.083H41.0993L44.2175 113.852L50.7656 114.269M58.8728 75.9944L53.2601 82.6563V85.39M50.7656 114.269L56.8465 109.429M34.5512 92.4654H36.578V94.7166M36.578 94.7166L35.6426 97.6111M36.578 94.7166L38.9166 94.2342M38.9166 94.2342L43.7497 87.3196M38.9166 94.2342L40.1639 96.9679L42.8143 101.31H46.2443L47.4915 102.918M43.7497 87.3196L44.2175 84.2644M43.7497 87.3196L47.4915 84.2644M44.2175 84.2644H42.8143M44.2175 84.2644L45.3088 82.6563M44.2175 84.2644H47.4915M47.4915 84.2644L50.7656 83.4603L53.2601 85.39M53.2601 85.39L56.0664 86.5156L58.8728 89.2493M53.2601 85.39L58.0932 89.8925V91.3397M58.8728 89.2493L61.3673 89.8925L63.3941 91.3397M58.8728 89.2493L58.0932 91.3397M58.0932 91.3397L57.4696 95.8423V102.918M57.4696 102.918L51.5451 103.722M57.4696 102.918L58.8728 107.816M51.5451 103.722L50.1419 102.918H47.4915M51.5451 103.722L54.3515 108.385L56.8465 109.429M47.4915 102.918V105.008M56.8465 109.429L58.8728 107.816M38.9166 98.4151V100.666L40.1639 102.918M34.5512 100.666L38.293 102.918M44.6852 108.063L49.5183 112.083M44.6852 110.154L48.7388 113.048M139.633 46.3146V49.0483L137.762 51.9428L136.515 56.9277L136.203 51.4604L131.682 61.591V51.9428L127.94 49.0483V46.3146M139.633 46.3146L144.778 41.8121L145.402 37.9528M139.633 46.3146L136.203 48.4051H132.441M145.402 37.9528L143.998 34.5759L140.724 32.3247H136.203L133.553 29.591L136.515 26.0533L143.998 24.9277L153.197 21.8724L158.186 16.8875V10.1337L152.261 5.79202L144.778 4.50558L134.488 5.79202L125.913 8.84729L119.209 15.2795L118.118 20.586M145.402 37.9528H133.864M118.118 20.586L117.494 25.5709M118.118 20.586H115H112L111 18.6563L109.5 15.7619V12.5458L111 10.1337L116 6.5L119.209 5.5L124.51 1.61111M117.494 25.5709L119.209 31.8423L124.042 35.8624L125.445 37.9528M117.494 25.5709L112 24.9277L105.5 21.8724L101.5 16.0835V9.49051L106 5.5L112 2.5L116 1.48058M125.445 37.9528L124.042 40.0433L124.822 42.9377L126.849 44.385V45.5106L127.94 46.3146M125.445 37.9528L127.94 40.6865L132.773 41.8121V43.581M125.445 37.9528H133.864M127.94 46.3146L132.441 48.4051M132.773 43.581H131.682V45.5106H132.441M132.773 43.581L134.02 43.9026M132.441 45.5106V48.4051M132.441 45.5106L136.515 44.385L139.633 40.6865V39.4001L136.983 40.0433L136.203 40.6865V42.9377L134.02 43.9026M134.02 43.9026L133.553 41.3297L133.864 37.9528M138.23 20.586H129.655L127.628 23.8021H133.553L138.23 20.586ZM138.23 20.586L141.192 19.1387L143.531 17.6915M143.531 17.6915L144.466 15.7619L143.531 13.3498L139.321 12.5458L133.553 14.4754L127.316 18.6563L123.574 17.6915L125.913 14.4754L132.149 10.6161L137.45 9.49051H143.998L147.428 10.6161L149.455 12.5458L151.326 14.4754V16.0835L149.143 17.6915L145.713 19.6212H142.907L143.531 17.6915ZM129.031 1.61111H124.51M7.1115 118.194L10.6974 113.852L14.2833 111.279L18.4928 112.083L21.9227 110.154L28.4708 113.852L32.3685 115.139L36.578 120.284L40.1639 124.213V126.234L42.8143 128.968V134.114L41.0993 136.847L38.293 140.546L36.578 143.119L34.5512 144.566H30.3417L27.2236 146.978H23.17H18.4928L13.1919 146.013L8.67058 144.566L4.30517 142.315V140.546L0.56339 136.847M7.1115 118.194H4.30517L1.96655 120.284L0.56339 124.213M7.1115 118.194L9.29421 118.516V124.213L13.1919 118.516L7.1115 126.234M0.56339 124.213C0.56339 124.213 0.563161 72.5257 0.56339 44.385C0.563619 16.2443 30.7053 4.11111 39.3843 1.61111C46.8269 -0.53273 100.779 1.00027 116 1.48058M0.56339 124.213V136.847M0.56339 136.847V167.078M38.293 130.094L35.6426 134.114M35.6426 134.114V128.968L33.7717 127.681M35.6426 134.114L33.7717 135.722L32.9921 139.259M33.7717 127.681V124.213L29.5622 117.551L27.2236 115.139L19.8959 113.852M33.7717 127.681L32.9921 130.898L30.3417 130.576L25.9763 134.114M19.8959 113.852L18.4928 113.048M19.8959 113.852L15.3746 117.551V120.284L12.5683 123.661L14.2833 126.234M14.2833 126.234L15.3746 134.114L14.2833 136.847M14.2833 126.234L16.9337 130.576L21.9227 134.114M14.2833 136.847H12.5683M14.2833 136.847L16.31 142.315L10.6974 143.119M21.9227 134.114H25.9763M21.9227 134.114L25.0409 139.259M25.9763 134.114V137.973L25.0409 139.259M25.0409 139.259V142.315L23.17 143.119V144.566M7.1115 126.234L1.96655 124.213M7.1115 126.234H9.29421L12.5683 128.968M0.56339 167.078L53.2601 150.516M0.56339 167.078V171.42M53.2601 150.516L57.4696 154.053M53.2601 150.516H64.9531M57.4696 159.681L0.56339 177.852M57.4696 159.681L66.8897 152.928M57.4696 159.681L58.2491 157.591M0.56339 177.852V175.601M57.4696 154.053L58.2491 156.305V157.591M57.4696 154.053L0.56339 171.42M64.9531 150.516H70.254L66.8897 152.928M64.9531 150.516L66.8897 152.928M0.56339 171.42V175.601M58.2491 157.591L0.56339 175.601M256.563 188.465L256.563 186.767M256.563 188.465C256.563 188.465 256.563 187.538 256.563 186.616M256.563 186.767V186.616M256.563 186.767C256.563 183.417 256.563 185.009 256.563 186.616M256.76 191.989C256.776 192.199 256.793 192.415 256.81 192.638M256.76 191.989C256.776 192.2 256.793 192.418 256.81 192.642M256.76 191.989L256.81 192.638M256.81 192.638L256.81 192.642M116 1.48058C118.529 1.56037 119.989 1.61111 119.989 1.61111H124.51M219.146 46.4754C219.146 46.4754 223.064 38.6111 223.979 35.38C224.894 32.1488 223.933 31.8325 222.42 30.5558C221.386 29.684 220.498 29.4175 219.146 29.4302C216.964 29.4507 215.248 29.9126 214.469 32.4855C213.689 35.0583 213.689 45.0282 213.689 45.0282L219.146 46.4754ZM215.872 48.2443C216.179 48.2443 217.564 48.1111 217.898 50.0131C218.04 50.8172 218.064 51.6111 217.898 52.1036C217.898 52.1036 217.064 53.5508 215.872 53.5508C214.679 53.5508 214.564 53.6111 213.689 53.5508C212.814 53.4905 212.064 52.6111 211.974 51.2996C211.884 49.988 211.884 49.8071 211.974 49.2091C212.064 48.6111 212.314 48.3774 213.689 48.2443C215.064 48.1111 215.564 48.2443 215.872 48.2443ZM201.372 32.4855L202.152 30.5558L203.143 33.1287H207.141L203.143 34.4151L202.152 35.38L200.905 34.7367L201.372 32.4855ZM140.257 34.8975V36.184L136.983 36.8272L133.553 36.5056L131.993 32.6463L134.488 34.2543L136.983 35.0583L140.257 34.8975ZM128.096 35.7016L126.537 32.3247L124.822 28.4654V25.5709H119.209L119.989 28.1438L122.327 32.3247L128.096 35.7016ZM130.434 29.591L132.149 25.7317H127.628V27.5006L130.434 29.591ZM121.236 20.1036H126.225L124.822 23.4805H120.456L121.236 20.1036ZM131.214 19.1387L134.488 16.8875L138.542 15.2795L141.192 15.7619L139.789 17.6915L136.203 19.1387H131.214Z" stroke="black" stroke-linecap="round" stroke-linejoin="round"/>
<path d="M67.8388 185.258V186.67H69.2505V192.317H67.8388V193.729H69.2505V200.788H67.8388V202.199H66.427V203.611H50.8976V202.199H49.4858V185.258H50.8976V188.082H52.3094V186.67H53.7211V185.258H50.8976V183.846H66.427V185.258H67.8388ZM63.6035 190.905V188.082H59.3682V190.905H63.6035ZM59.3682 197.964H63.6035V195.141H59.3682V197.964ZM90.4325 183.846V185.258H91.8443V200.788H90.4325V202.199H89.0208V203.611H74.9031V202.199H73.4914V200.788H72.0796V185.258H73.4914V188.082H74.9031V186.67H76.3149V185.258H73.4914V183.846H80.5502V185.258H81.9619V197.964H84.7855V185.258H86.1972V183.846H90.4325ZM113.026 185.258V186.67H114.438V192.317H113.026V193.729H111.615V195.141H113.026V196.552H114.438V202.199H113.026V203.611H110.203V202.199H108.791V200.788H107.379V199.376H105.967V197.964H104.556V202.199H103.144V203.611H96.0851V202.199H94.6733V185.258H96.0851V188.082H97.4969V186.67H98.9086V185.258H96.0851V183.846H111.615V185.258H113.026ZM108.791 190.905V188.082H104.556V190.905H108.791ZM135.62 183.846V185.258H137.032V202.199H135.62V203.611H131.385V202.199H129.973V197.964H128.561V196.552H127.149V202.199H125.738V203.611H118.679V202.199H117.267V185.258H118.679V188.082H120.091V186.67H121.502V185.258H118.679V183.846H125.738V185.258H127.149V190.905H128.561V192.317H129.973V185.258H131.385V183.846H135.62ZM158.214 185.258V186.67H159.626V200.788H158.214V202.199H156.802V203.611H142.684V202.199H141.273V200.788H139.861V186.67H141.273V188.082H142.684V186.67H144.096V185.258H142.684V183.846H156.802V185.258H158.214ZM149.743 197.964H153.978V188.082H149.743V197.964ZM180.808 183.846V185.258H182.219V200.788H180.808V202.199H179.396V203.611H165.278V202.199H163.866V200.788H162.455V185.258H163.866V188.082H165.278V186.67H166.69V185.258H163.866V183.846H170.925V185.258H172.337V197.964H175.16V185.258H176.572V183.846H180.808ZM203.401 183.846V185.258H204.813V188.082H203.401V189.493H199.166V202.199H197.754V203.611H192.107V202.199H190.695V189.493H186.46V188.082H187.872V186.67H189.284V185.258H186.46V183.846H203.401ZM186.46 185.258V188.082H185.048V185.258H186.46Z" fill="#0C2F5A"/>
<path d="M49.6903 218.846V220.258H51.1021V223.082H49.6903V224.493H41.2198V225.905H49.6903V227.317H51.1021V235.788H49.6903V237.199H48.2786V238.611H32.7492V237.199H31.3374V232.964H32.7492V231.552H44.0433V230.141H32.7492V228.729H31.3374V221.67H32.7492V223.082H34.1609V221.67H35.5727V220.258H34.1609V218.846H49.6903ZM62.4017 218.846V220.258H63.8135V237.199H62.4017V238.611H55.3429V237.199H53.9312V220.258H55.3429V223.082H56.7547V221.67H58.1664V220.258H55.3429V218.846H62.4017ZM86.399 218.846V220.258H87.8107V237.199H86.399V238.611H82.1637V237.199H80.7519V232.964H79.3402V234.376H77.9284V232.964H76.5166V237.199H75.1049V238.611H68.046V237.199H66.6343V220.258H68.046V223.082H69.4578V221.67H70.8696V220.258H68.046V218.846H75.1049V220.258H76.5166V225.905H77.9284V227.317H79.3402V225.905H80.7519V220.258H82.1637V218.846H86.399ZM108.987 218.846V220.258H110.399V235.788H108.987V237.199H107.575V238.611H93.4578V237.199H92.046V235.788H90.6343V220.258H92.046V223.082H93.4578V221.67H94.8696V220.258H92.046V218.846H99.1049V220.258H100.517V232.964H103.34V220.258H104.752V218.846H108.987ZM130.169 232.964V234.376H131.581V237.199H130.169V238.611H114.64V237.199H113.228V220.258H114.64V223.082H116.052V221.67H117.463V220.258H114.64V218.846H121.699V220.258H123.11V232.964H130.169ZM152.768 221.67V223.082H154.18V237.199H152.768V238.611H149.945V237.199H148.533V228.729H144.298V237.199H142.886V238.611H135.827V237.199H134.416V221.67H135.827V223.082H137.239V221.67H138.651V220.258H137.239V218.846H149.945V220.258H151.357V221.67H152.768ZM144.298 223.082V225.905H148.533V223.082H144.298ZM175.362 218.846V220.258H176.774V223.082H175.362V224.493H171.127V237.199H169.715V238.611H164.068V237.199H162.656V224.493H158.421V223.082H159.833V221.67H161.245V220.258H158.421V218.846H175.362ZM158.421 220.258V223.082H157.009V220.258H158.421ZM197.956 220.258V221.67H199.368V235.788H197.956V237.199H196.544V238.611H182.427V237.199H181.015V235.788H179.603V221.67H181.015V223.082H182.427V221.67H183.838V220.258H182.427V218.846H196.544V220.258H197.956ZM189.485 232.964H193.721V223.082H189.485V232.964ZM220.55 220.258V221.67H221.961V227.317H220.55V228.729H219.138V230.141H220.55V231.552H221.961V237.199H220.55V238.611H217.726V237.199H216.314V235.788H214.903V234.376H213.491V232.964H212.079V237.199H210.667V238.611H203.609V237.199H202.197V220.258H203.609V223.082H205.02V221.67H206.432V220.258H203.609V218.846H219.138V220.258H220.55ZM216.314 225.905V223.082H212.079V225.905H216.314Z" fill="#2364A9"/>
</svg>
